{"title":"Jessie J, Ariana Grande, Nicki Minaj - Bang Bang [Music Video] 1","uid":11175915,"size":128108916,"categoryP":"video","categoryS":"music_videos","magnet":"?xt=urn:btih:fef06290b4ad4fe331fa12ef6c455b768d523cfa&amp;dn=Jessie+J%2C+Ariana+Grande%2C+Nicki+Minaj+-+Bang+Bang+%5BMusic+Video%5D+1&amp;tr=udp%3A%2F%2Ftracker.openbittorrent.com%3A80&amp;tr=udp%3A%2F%2Fopen.demonii.com%3A1337&amp;tr=udp%3A%2F%2Ftracker.coppersurfer.tk%3A6969&amp;tr=udp%3A%2F%2Fexodus.desync.com%3A6969","seeders":12,"leechers":1,"uploader":"Sbyky","files":1,"time":1412785548,"description":"General\nComplete name                            : Jessie J, Ariana Grande, Nicki Minaj - Bang Bang [Music Video] 1080p [Sbyky].MP4\nFormat                                   : MPEG-4\nFormat profile                           : Base Media\nCodec ID                                 : isom\nFile size                                : 122 MiB\nDuration                                 : 4mn 22s\nOverall bit rate mode                    : Variable\nOverall bit rate                         : 3 910 Kbps\nEncoded date                             : UTC 2014-08-27 09:09:02\nTagged date                              : UTC 2014-08-27 09:09:02\n\nVideo\nID                                       : 1\nFormat                                   : AVC\nFormat/Info                              : Advanced Video Codec\nFormat profile                           : &lt;a class=&quot;__cf_email__&quot; href=&quot;/cdn-cgi/l/email-protection&quot; data-cfemail=&quot;c981a0aea18985fde7f9&quot;&gt;[email&amp;#160;protected]&lt;/a&gt;&lt;script cf-hash='f9e31' type=&quot;text/javascript&quot;&gt;\n/* &lt;![CDATA[ */!function(){try{var t=&quot;currentScript&quot;in document?document.currentScript:function(){for(var t=document.getElementsByTagName(&quot;script&quot;),e=t.length;e--;)if(t[e].getAttribute(&quot;cf-hash&quot;))return t[e]}();if(t&amp;&amp;t.previousSibling){var e,r,n,i,c=t.previousSibling,a=c.getAttribute(&quot;data-cfemail&quot;);if(a){for(e=&quot;&quot;,r=parseInt(a.substr(0,2),16),n=2;a.length-n;n+=2)i=parseInt(a.substr(n,2),16)^r,e+=String.fromCharCode(i);e=document.createTextNode(e),c.parentNode.replaceChild(e,c)}}}catch(u){}}();/* ]]&gt; */&lt;/script&gt;\nFormat settings, CABAC                   : Yes\nFormat settings, ReFrames                : 3 frames\nCodec ID                                 : avc1\nCodec ID/Info                            : Advanced Video Coding\nDuration                                 : 4mn 21s\nBit rate                                 : 3 783 Kbps\nWidth                                    : 1 920 pixels\nHeight                                   : 1 080 pixels\nDisplay aspect ratio                     : 16:9\nFrame rate mode                          : Variable\nFrame rate                               : 23.976 fps\nMinimum frame rate                       : 21.429 fps\nMaximum frame rate                       : 375.000 fps\nColor space                              : YUV\nChroma subsampling                       : 4:2:0\nBit depth                                : 8 bits\nScan type                                : Progressive\nBits/(Pixel*Frame)                       : 0.076\nStream size                              : 118 MiB (97%)\nEncoded date                             : UTC 2014-08-27 09:09:02\nTagged date                              : UTC 2014-08-27 09:09:02\n\nAudio\nID                                       : 2\nFormat                                   : AAC\nFormat/Info                              : Advanced Audio Codec\nFormat profile                           : LC\nCodec ID                                 : 40\nDuration                                 : 4mn 22s\nBit rate mode                            : Variable\nBit rate                                 : 126 Kbps\nChannel(s)                               : 2 channels\nChannel positions                        : Front: L R\nSampling rate                            : 44.1 KHz\nCompression mode                         : Lossy\nStream size                              : 3.92 MiB (3%)\nEncoded date                             : UTC 2014-08-27 09:03:12\nTagged date                              : UTC 2014-08-27 09:03:12\n\nShared By Sbyky\n","torrent":{"xt":"urn:btih:fef06290b4ad4fe331fa12ef6c455b768d523cfa","amp;dn":"Jessie+J%2C+Ariana+Grande%2C+Nicki+Minaj+-+Bang+Bang+%5BMusic+Video%5D+1","amp;tr":["udp%3A%2F%2Ftracker.openbittorrent.com%3A80","udp%3A%2F%2Fopen.demonii.com%3A1337","udp%3A%2F%2Ftracker.coppersurfer.tk%3A6969","udp%3A%2F%2Fexodus.desync.com%3A6969"],"infoHash":"fef06290b4ad4fe331fa12ef6c455b768d523cfa","infoHashBuffer":{"type":"Buffer","data":[254,240,98,144,180,173,79,227,49,250,18,239,108,69,91,118,141,82,60,250]},"announce":[],"urlList":[]}}